<?xml version="1.0"?>
<svg xmlns="http://www.w3.org/2000/svg" height="512px" viewBox="-21 -115 682.66669 682" width="512px" class=""><g><path d="m329.375 242.597656h-18.75v-18.75h18.75zm0-31.25h-18.75v-18.75h18.75zm0 0" data-original="#000000" class="active-path" data-old_color="#FBF8F8" fill="#FFFDFD"/><path d="m0-5.917969v452.480469h71.960938v-18.75h-53.210938v-88.234375h128.304688v-60.207031c28.527343-4.511719 50.410156-29.265625 50.410156-59.046875 0-29.777344-21.882813-54.535157-50.410156-59.046875v-60.207032h-128.304688v-88.238281h291.875v118.738281c-44.824219 4.695313-79.878906 42.707032-79.878906 88.753907 0 46.050781 35.054687 84.058593 79.878906 88.757812v118.730469h-213.664062v18.75h543.039062v-452.480469zm178.714844 226.242188c0 19.402343-13.535156 35.691406-31.660156 39.945312v-79.890625c18.125 4.25 31.660156 20.539063 31.660156 39.945313zm-50.410156-100.503907v201.007813h-109.554688v-18.75h53.304688v-98.820313h-18.75v80.070313h-34.554688v-126.007813h34.554688v20.9375h18.75v-39.6875h-53.304688v-18.75zm121.191406 100.503907c0-35.695313 26.671875-65.257813 61.128906-69.859375v23.382812h18.75v-23.382812c34.457031 4.601562 61.128906 34.164062 61.128906 69.859375 0 35.699219-26.671875 65.257812-61.128906 69.863281v-28.832031h-18.75v28.832031c-34.457031-4.605469-61.128906-34.164062-61.128906-69.863281zm79.878906 207.488281v-118.730469c44.824219-4.699219 79.878906-42.707031 79.878906-88.757812 0-46.046875-35.054687-84.058594-79.878906-88.753907v-118.738281h291.875v88.238281h-54.644531v18.75h54.644531v18.75h-53.304688v163.507813h53.304688v18.75h-109.554688v-201.007813h29.910157v-18.75h-48.660157v60.207032c-28.527343 4.511718-50.410156 29.269531-50.410156 59.046875 0 29.78125 21.882813 54.535156 50.410156 59.046875v60.207031h128.304688v88.234375zm291.875-270.492188v126.007813h-34.554688v-126.007813zm-128.304688 102.949219c-18.125-4.253906-31.660156-20.542969-31.660156-39.945312 0-19.40625 13.535156-35.695313 31.660156-39.945313zm0 0" data-original="#000000" class="active-path" data-old_color="#FBF8F8" fill="#FFFDFD"/></g> </svg>
